<mxfile host="Electron" modified="2024-05-23T06:56:50.372Z" agent="Mozilla/5.0 (Windows NT 10.0; Win64; x64) AppleWebKit/537.36 (KHTML, like Gecko) draw.io/24.4.0 Chrome/120.0.6099.109 Electron/28.1.0 Safari/537.36" etag="vWBP6BJaEjysOF_bQJnE" version="24.4.0" type="device">
  <diagram id="C5RBs43oDa-KdzZeNtuy" name="Page-1">
    <mxGraphModel dx="2234" dy="854" grid="1" gridSize="10" guides="1" tooltips="1" connect="1" arrows="1" fold="1" page="0" pageScale="1" pageWidth="827" pageHeight="1169" math="0" shadow="0">
      <root>
        <mxCell id="WIyWlLk6GJQsqaUBKTNV-0" />
        <mxCell id="WIyWlLk6GJQsqaUBKTNV-1" parent="WIyWlLk6GJQsqaUBKTNV-0" />
        <mxCell id="MhOLSZ1u6sj56sHogBxl-8" value="" style="edgeStyle=orthogonalEdgeStyle;rounded=0;orthogonalLoop=1;jettySize=auto;html=1;exitX=0.5;exitY=0;exitDx=0;exitDy=0;endArrow=blockThin;endFill=0;endSize=14;labelBackgroundColor=none;strokeColor=#0B4D6A;fontColor=default;" edge="1" parent="WIyWlLk6GJQsqaUBKTNV-1" source="MhOLSZ1u6sj56sHogBxl-0" target="MhOLSZ1u6sj56sHogBxl-4">
          <mxGeometry relative="1" as="geometry" />
        </mxCell>
        <mxCell id="MhOLSZ1u6sj56sHogBxl-0" value="AHUD" style="swimlane;fontStyle=1;align=center;verticalAlign=top;childLayout=stackLayout;horizontal=1;startSize=26;horizontalStack=0;resizeParent=1;resizeParentMax=0;resizeLast=0;collapsible=1;marginBottom=0;whiteSpace=wrap;html=1;labelBackgroundColor=none;fillColor=#09555B;strokeColor=#BAC8D3;fontColor=#EEEEEE;" vertex="1" parent="WIyWlLk6GJQsqaUBKTNV-1">
          <mxGeometry x="-330" y="380" width="290" height="138" as="geometry" />
        </mxCell>
        <mxCell id="MhOLSZ1u6sj56sHogBxl-9" value="+ TArray&amp;lt;FName&amp;gt; DebugDisplay" style="text;strokeColor=none;fillColor=none;align=left;verticalAlign=top;spacingLeft=4;spacingRight=4;overflow=hidden;rotatable=0;points=[[0,0.5],[1,0.5]];portConstraint=eastwest;whiteSpace=wrap;html=1;labelBackgroundColor=none;fontColor=#EEEEEE;" vertex="1" parent="MhOLSZ1u6sj56sHogBxl-0">
          <mxGeometry y="26" width="290" height="26" as="geometry" />
        </mxCell>
        <mxCell id="MhOLSZ1u6sj56sHogBxl-1" value="+ FOnShowDebugInfo OnShowDebugInfo" style="text;strokeColor=none;fillColor=none;align=left;verticalAlign=top;spacingLeft=4;spacingRight=4;overflow=hidden;rotatable=0;points=[[0,0.5],[1,0.5]];portConstraint=eastwest;whiteSpace=wrap;html=1;labelBackgroundColor=none;fontColor=#EEEEEE;" vertex="1" parent="MhOLSZ1u6sj56sHogBxl-0">
          <mxGeometry y="52" width="290" height="26" as="geometry" />
        </mxCell>
        <mxCell id="MhOLSZ1u6sj56sHogBxl-2" value="" style="line;strokeWidth=1;fillColor=none;align=left;verticalAlign=middle;spacingTop=-1;spacingLeft=3;spacingRight=3;rotatable=0;labelPosition=right;points=[];portConstraint=eastwest;strokeColor=#BAC8D3;labelBackgroundColor=none;fontColor=#EEEEEE;" vertex="1" parent="MhOLSZ1u6sj56sHogBxl-0">
          <mxGeometry y="78" width="290" height="8" as="geometry" />
        </mxCell>
        <mxCell id="MhOLSZ1u6sj56sHogBxl-31" value="+ bool ShouldDisplayDebug(FName DebugType)" style="text;strokeColor=none;fillColor=none;align=left;verticalAlign=top;spacingLeft=4;spacingRight=4;overflow=hidden;rotatable=0;points=[[0,0.5],[1,0.5]];portConstraint=eastwest;whiteSpace=wrap;html=1;labelBackgroundColor=none;fontColor=#EEEEEE;" vertex="1" parent="MhOLSZ1u6sj56sHogBxl-0">
          <mxGeometry y="86" width="290" height="26" as="geometry" />
        </mxCell>
        <mxCell id="MhOLSZ1u6sj56sHogBxl-3" value="+ void ShowDebug(FName DebugType)" style="text;strokeColor=none;fillColor=none;align=left;verticalAlign=top;spacingLeft=4;spacingRight=4;overflow=hidden;rotatable=0;points=[[0,0.5],[1,0.5]];portConstraint=eastwest;whiteSpace=wrap;html=1;labelBackgroundColor=none;fontColor=#EEEEEE;" vertex="1" parent="MhOLSZ1u6sj56sHogBxl-0">
          <mxGeometry y="112" width="290" height="26" as="geometry" />
        </mxCell>
        <mxCell id="MhOLSZ1u6sj56sHogBxl-19" value="" style="edgeStyle=orthogonalEdgeStyle;rounded=0;orthogonalLoop=1;jettySize=auto;html=1;exitX=0.5;exitY=0;exitDx=0;exitDy=0;strokeColor=#0B4D6A;align=center;verticalAlign=middle;fontFamily=Helvetica;fontSize=11;fontColor=default;labelBackgroundColor=none;endArrow=blockThin;endFill=0;endSize=14;" edge="1" parent="WIyWlLk6GJQsqaUBKTNV-1" source="MhOLSZ1u6sj56sHogBxl-15" target="MhOLSZ1u6sj56sHogBxl-4">
          <mxGeometry relative="1" as="geometry" />
        </mxCell>
        <mxCell id="MhOLSZ1u6sj56sHogBxl-4" value="AActor" style="swimlane;fontStyle=1;align=center;verticalAlign=top;childLayout=stackLayout;horizontal=1;startSize=26;horizontalStack=0;resizeParent=1;resizeParentMax=0;resizeLast=0;collapsible=1;marginBottom=0;whiteSpace=wrap;html=1;labelBackgroundColor=none;fillColor=#09555B;strokeColor=#BAC8D3;fontColor=#EEEEEE;" vertex="1" parent="WIyWlLk6GJQsqaUBKTNV-1">
          <mxGeometry x="-460" y="150" width="160" height="86" as="geometry" />
        </mxCell>
        <mxCell id="MhOLSZ1u6sj56sHogBxl-5" value="+&amp;nbsp;" style="text;strokeColor=none;fillColor=none;align=left;verticalAlign=top;spacingLeft=4;spacingRight=4;overflow=hidden;rotatable=0;points=[[0,0.5],[1,0.5]];portConstraint=eastwest;whiteSpace=wrap;html=1;labelBackgroundColor=none;fontColor=#EEEEEE;" vertex="1" parent="MhOLSZ1u6sj56sHogBxl-4">
          <mxGeometry y="26" width="160" height="26" as="geometry" />
        </mxCell>
        <mxCell id="MhOLSZ1u6sj56sHogBxl-6" value="" style="line;strokeWidth=1;fillColor=none;align=left;verticalAlign=middle;spacingTop=-1;spacingLeft=3;spacingRight=3;rotatable=0;labelPosition=right;points=[];portConstraint=eastwest;strokeColor=#BAC8D3;labelBackgroundColor=none;fontColor=#EEEEEE;" vertex="1" parent="MhOLSZ1u6sj56sHogBxl-4">
          <mxGeometry y="52" width="160" height="8" as="geometry" />
        </mxCell>
        <mxCell id="MhOLSZ1u6sj56sHogBxl-7" value="+&amp;nbsp;" style="text;strokeColor=none;fillColor=none;align=left;verticalAlign=top;spacingLeft=4;spacingRight=4;overflow=hidden;rotatable=0;points=[[0,0.5],[1,0.5]];portConstraint=eastwest;whiteSpace=wrap;html=1;labelBackgroundColor=none;fontColor=#EEEEEE;" vertex="1" parent="MhOLSZ1u6sj56sHogBxl-4">
          <mxGeometry y="60" width="160" height="26" as="geometry" />
        </mxCell>
        <mxCell id="MhOLSZ1u6sj56sHogBxl-10" value="FEnhancedInputModule" style="swimlane;fontStyle=1;align=center;verticalAlign=top;childLayout=stackLayout;horizontal=1;startSize=26;horizontalStack=0;resizeParent=1;resizeParentMax=0;resizeLast=0;collapsible=1;marginBottom=0;whiteSpace=wrap;html=1;labelBackgroundColor=none;fillColor=#09555B;strokeColor=#BAC8D3;fontColor=#EEEEEE;" vertex="1" parent="WIyWlLk6GJQsqaUBKTNV-1">
          <mxGeometry x="170" y="370" width="280" height="86" as="geometry" />
        </mxCell>
        <mxCell id="MhOLSZ1u6sj56sHogBxl-11" value="+&amp;nbsp;" style="text;strokeColor=none;fillColor=none;align=left;verticalAlign=top;spacingLeft=4;spacingRight=4;overflow=hidden;rotatable=0;points=[[0,0.5],[1,0.5]];portConstraint=eastwest;whiteSpace=wrap;html=1;labelBackgroundColor=none;fontColor=#EEEEEE;" vertex="1" parent="MhOLSZ1u6sj56sHogBxl-10">
          <mxGeometry y="26" width="280" height="26" as="geometry" />
        </mxCell>
        <mxCell id="MhOLSZ1u6sj56sHogBxl-12" value="" style="line;strokeWidth=1;fillColor=none;align=left;verticalAlign=middle;spacingTop=-1;spacingLeft=3;spacingRight=3;rotatable=0;labelPosition=right;points=[];portConstraint=eastwest;strokeColor=#BAC8D3;labelBackgroundColor=none;fontColor=#EEEEEE;" vertex="1" parent="MhOLSZ1u6sj56sHogBxl-10">
          <mxGeometry y="52" width="280" height="8" as="geometry" />
        </mxCell>
        <mxCell id="MhOLSZ1u6sj56sHogBxl-13" value="+ static void OnShowDebugInfo(...)" style="text;strokeColor=none;fillColor=none;align=left;verticalAlign=top;spacingLeft=4;spacingRight=4;overflow=hidden;rotatable=0;points=[[0,0.5],[1,0.5]];portConstraint=eastwest;whiteSpace=wrap;html=1;labelBackgroundColor=none;fontColor=#EEEEEE;" vertex="1" parent="MhOLSZ1u6sj56sHogBxl-10">
          <mxGeometry y="60" width="280" height="26" as="geometry" />
        </mxCell>
        <mxCell id="MhOLSZ1u6sj56sHogBxl-14" value="AddStatic" style="edgeStyle=orthogonalEdgeStyle;rounded=0;orthogonalLoop=1;jettySize=auto;html=1;labelBackgroundColor=none;strokeColor=#0B4D6A;fontColor=default;dashed=1;" edge="1" parent="WIyWlLk6GJQsqaUBKTNV-1" source="MhOLSZ1u6sj56sHogBxl-1" target="MhOLSZ1u6sj56sHogBxl-13">
          <mxGeometry relative="1" as="geometry" />
        </mxCell>
        <mxCell id="MhOLSZ1u6sj56sHogBxl-15" value="APlayerController" style="swimlane;fontStyle=1;align=center;verticalAlign=top;childLayout=stackLayout;horizontal=1;startSize=26;horizontalStack=0;resizeParent=1;resizeParentMax=0;resizeLast=0;collapsible=1;marginBottom=0;whiteSpace=wrap;html=1;labelBackgroundColor=none;fillColor=#09555B;strokeColor=#BAC8D3;fontColor=#EEEEEE;" vertex="1" parent="WIyWlLk6GJQsqaUBKTNV-1">
          <mxGeometry x="-660" y="380" width="160" height="86" as="geometry" />
        </mxCell>
        <mxCell id="MhOLSZ1u6sj56sHogBxl-16" value="+ AHUD* MyHUD" style="text;strokeColor=none;fillColor=none;align=left;verticalAlign=top;spacingLeft=4;spacingRight=4;overflow=hidden;rotatable=0;points=[[0,0.5],[1,0.5]];portConstraint=eastwest;whiteSpace=wrap;html=1;labelBackgroundColor=none;fontColor=#EEEEEE;" vertex="1" parent="MhOLSZ1u6sj56sHogBxl-15">
          <mxGeometry y="26" width="160" height="26" as="geometry" />
        </mxCell>
        <mxCell id="MhOLSZ1u6sj56sHogBxl-17" value="" style="line;strokeWidth=1;fillColor=none;align=left;verticalAlign=middle;spacingTop=-1;spacingLeft=3;spacingRight=3;rotatable=0;labelPosition=right;points=[];portConstraint=eastwest;strokeColor=#BAC8D3;labelBackgroundColor=none;fontColor=#EEEEEE;" vertex="1" parent="MhOLSZ1u6sj56sHogBxl-15">
          <mxGeometry y="52" width="160" height="8" as="geometry" />
        </mxCell>
        <mxCell id="MhOLSZ1u6sj56sHogBxl-18" value="+&amp;nbsp;" style="text;strokeColor=none;fillColor=none;align=left;verticalAlign=top;spacingLeft=4;spacingRight=4;overflow=hidden;rotatable=0;points=[[0,0.5],[1,0.5]];portConstraint=eastwest;whiteSpace=wrap;html=1;labelBackgroundColor=none;fontColor=#EEEEEE;" vertex="1" parent="MhOLSZ1u6sj56sHogBxl-15">
          <mxGeometry y="60" width="160" height="26" as="geometry" />
        </mxCell>
        <mxCell id="MhOLSZ1u6sj56sHogBxl-20" style="edgeStyle=orthogonalEdgeStyle;rounded=0;orthogonalLoop=1;jettySize=auto;html=1;endArrow=diamondThin;endFill=0;endSize=14;labelBackgroundColor=none;strokeColor=#0B4D6A;fontColor=default;" edge="1" parent="WIyWlLk6GJQsqaUBKTNV-1" source="MhOLSZ1u6sj56sHogBxl-0" target="MhOLSZ1u6sj56sHogBxl-16">
          <mxGeometry relative="1" as="geometry" />
        </mxCell>
        <mxCell id="MhOLSZ1u6sj56sHogBxl-32" value="AHUD" style="shape=umlLifeline;perimeter=lifelinePerimeter;whiteSpace=wrap;html=1;container=1;dropTarget=0;collapsible=0;recursiveResize=0;outlineConnect=0;portConstraint=eastwest;newEdgeStyle={&quot;curved&quot;:0,&quot;rounded&quot;:0};labelBackgroundColor=none;fillColor=#09555B;strokeColor=#BAC8D3;fontColor=#EEEEEE;" vertex="1" parent="WIyWlLk6GJQsqaUBKTNV-1">
          <mxGeometry x="-250" y="655" width="100" height="555" as="geometry" />
        </mxCell>
        <mxCell id="MhOLSZ1u6sj56sHogBxl-22" value="在 DebugDisplay&amp;nbsp;数组中&amp;nbsp;增加/删除 DebugType" style="whiteSpace=wrap;html=1;labelBackgroundColor=none;fillColor=#09555B;strokeColor=#BAC8D3;fontColor=#EEEEEE;" vertex="1" parent="WIyWlLk6GJQsqaUBKTNV-1">
          <mxGeometry x="-300" y="830" width="210" height="50" as="geometry" />
        </mxCell>
        <mxCell id="MhOLSZ1u6sj56sHogBxl-24" value="OnShowDebugInfo.AddStatic" style="whiteSpace=wrap;html=1;labelBackgroundColor=none;fillColor=#09555B;strokeColor=#BAC8D3;fontColor=#EEEEEE;" vertex="1" parent="WIyWlLk6GJQsqaUBKTNV-1">
          <mxGeometry x="-305" y="907.5" width="210" height="50" as="geometry" />
        </mxCell>
        <mxCell id="MhOLSZ1u6sj56sHogBxl-34" value="" style="edgeStyle=orthogonalEdgeStyle;rounded=0;orthogonalLoop=1;jettySize=auto;html=1;curved=0;labelBackgroundColor=none;strokeColor=#0B4D6A;fontColor=default;exitX=1;exitY=0.5;exitDx=0;exitDy=0;" edge="1" parent="WIyWlLk6GJQsqaUBKTNV-1" source="MhOLSZ1u6sj56sHogBxl-24" target="MhOLSZ1u6sj56sHogBxl-33">
          <mxGeometry relative="1" as="geometry" />
        </mxCell>
        <mxCell id="MhOLSZ1u6sj56sHogBxl-33" value="FEnhancedInputModule" style="shape=umlLifeline;perimeter=lifelinePerimeter;whiteSpace=wrap;html=1;container=1;dropTarget=0;collapsible=0;recursiveResize=0;outlineConnect=0;portConstraint=eastwest;newEdgeStyle={&quot;curved&quot;:0,&quot;rounded&quot;:0};labelBackgroundColor=none;fillColor=#09555B;strokeColor=#BAC8D3;fontColor=#EEEEEE;" vertex="1" parent="WIyWlLk6GJQsqaUBKTNV-1">
          <mxGeometry x="100" y="655" width="170" height="555" as="geometry" />
        </mxCell>
        <mxCell id="MhOLSZ1u6sj56sHogBxl-36" value="OnShowDebugInfo.Broadcast" style="whiteSpace=wrap;html=1;labelBackgroundColor=none;fillColor=#09555B;strokeColor=#BAC8D3;fontColor=#EEEEEE;" vertex="1" parent="WIyWlLk6GJQsqaUBKTNV-1">
          <mxGeometry x="-305" y="990" width="210" height="50" as="geometry" />
        </mxCell>
        <mxCell id="MhOLSZ1u6sj56sHogBxl-37" style="edgeStyle=orthogonalEdgeStyle;rounded=0;orthogonalLoop=1;jettySize=auto;html=1;entryX=0.5;entryY=0.649;entryDx=0;entryDy=0;entryPerimeter=0;strokeColor=#0B4D6A;" edge="1" parent="WIyWlLk6GJQsqaUBKTNV-1" source="MhOLSZ1u6sj56sHogBxl-36" target="MhOLSZ1u6sj56sHogBxl-33">
          <mxGeometry relative="1" as="geometry" />
        </mxCell>
        <mxCell id="MhOLSZ1u6sj56sHogBxl-38" value="ShouldDisplayDebug(FName)" style="whiteSpace=wrap;html=1;labelBackgroundColor=none;fillColor=#09555B;strokeColor=#BAC8D3;fontColor=#EEEEEE;" vertex="1" parent="WIyWlLk6GJQsqaUBKTNV-1">
          <mxGeometry x="-305" y="1090" width="210" height="50" as="geometry" />
        </mxCell>
        <mxCell id="MhOLSZ1u6sj56sHogBxl-40" style="edgeStyle=orthogonalEdgeStyle;rounded=0;orthogonalLoop=1;jettySize=auto;html=1;curved=0;entryX=1;entryY=0.5;entryDx=0;entryDy=0;strokeColor=#0B4D6A;exitX=0.494;exitY=0.827;exitDx=0;exitDy=0;exitPerimeter=0;dashed=1;" edge="1" parent="WIyWlLk6GJQsqaUBKTNV-1" source="MhOLSZ1u6sj56sHogBxl-33" target="MhOLSZ1u6sj56sHogBxl-38">
          <mxGeometry relative="1" as="geometry">
            <mxPoint x="50" y="1140" as="sourcePoint" />
          </mxGeometry>
        </mxCell>
        <mxCell id="MhOLSZ1u6sj56sHogBxl-41" value="Draw something" style="whiteSpace=wrap;html=1;labelBackgroundColor=none;fillColor=#09555B;strokeColor=#BAC8D3;fontColor=#EEEEEE;" vertex="1" parent="WIyWlLk6GJQsqaUBKTNV-1">
          <mxGeometry x="80" y="1162" width="210" height="50" as="geometry" />
        </mxCell>
        <mxCell id="MhOLSZ1u6sj56sHogBxl-21" value="ShowDebug(DebugType)" style="whiteSpace=wrap;html=1;labelBackgroundColor=none;fillColor=#09555B;strokeColor=#BAC8D3;fontColor=#EEEEEE;" vertex="1" parent="WIyWlLk6GJQsqaUBKTNV-1">
          <mxGeometry x="-290" y="740" width="180" height="40" as="geometry" />
        </mxCell>
        <mxCell id="MhOLSZ1u6sj56sHogBxl-42" value="这一点设计不合理，需要每个 delegate&amp;nbsp;自己判断是否要显示自己，而不是要显示的 delegate&amp;nbsp;才被调用" style="shape=note;whiteSpace=wrap;html=1;backgroundOutline=1;fontColor=#000000;darkOpacity=0.05;fillColor=#FFF9B2;strokeColor=none;fillStyle=solid;direction=west;gradientDirection=north;gradientColor=#FFF2A1;shadow=1;size=20;pointerEvents=1;" vertex="1" parent="WIyWlLk6GJQsqaUBKTNV-1">
          <mxGeometry x="340" y="1142" width="160" height="90" as="geometry" />
        </mxCell>
      </root>
    </mxGraphModel>
  </diagram>
</mxfile>
